<?xml version="1.0" standalone="no"?>
<!DOCTYPE svg PUBLIC "-//W3C//DTD SVG 20010904//EN"
 "http://www.w3.org/TR/2001/REC-SVG-20010904/DTD/svg10.dtd">
<svg version="1.0" xmlns="http://www.w3.org/2000/svg"
 width="800.000000pt" height="799.000000pt" viewBox="0 0 800.000000 799.000000"
 preserveAspectRatio="xMidYMid meet">
<metadata>
Created by potrace 1.16, written by Peter Selinger 2001-2019
</metadata>
<g transform="translate(0.000000,799.000000) scale(0.100000,-0.100000)"
fill="#000000" stroke="none">
<path d="M0 3995 l0 -3995 4000 0 4000 0 0 3995 0 3995 -4000 0 -4000 0 0
-3995z m2900 1770 c178 -39 402 -133 545 -230 182 -122 246 -138 536 -133 256
5 296 15 448 115 178 117 391 209 583 250 62 13 127 18 253 18 154 0 179 -3
268 -28 113 -31 249 -96 345 -164 89 -62 253 -229 324 -329 458 -643 680
-1586 582 -2469 -46 -419 -118 -599 -284 -712 -75 -51 -142 -68 -260 -68 -100
0 -109 2 -180 36 -90 44 -202 123 -330 234 -116 101 -379 369 -516 525 -126
143 -124 142 -209 182 l-70 33 -985 0 -985 0 -65 -31 c-79 -38 -106 -62 -258
-234 -350 -396 -653 -657 -845 -728 -65 -25 -163 -29 -249 -11 -163 34 -305
184 -362 382 -27 92 -55 259 -71 420 -19 190 -19 585 0 777 54 552 215 1055
477 1497 229 384 519 614 857 678 97 19 346 13 451 -10z"/>
<path d="M5563 4893 c-54 -19 -116 -88 -133 -148 -29 -102 36 -225 137 -259
87 -30 155 -13 224 54 38 37 49 55 59 102 18 81 1 138 -59 198 -68 67 -141 84
-228 53z"/>
<path d="M2218 4698 l-3 -193 -192 -3 -193 -2 0 -205 0 -205 195 0 195 0 0
-195 0 -195 205 0 205 0 0 195 0 195 195 0 195 0 0 205 0 205 -192 2 -193 3
-3 193 -2 192 -205 0 -205 0 -2 -192z"/>
<path d="M5145 4471 c-129 -58 -164 -225 -72 -337 99 -120 303 -89 364 56 19
45 18 131 -3 175 -50 106 -183 155 -289 106z"/>
<path d="M5985 4461 c-209 -97 -139 -412 92 -411 122 1 212 94 213 218 0 154
-164 258 -305 193z"/>
<path d="M5565 4081 c-84 -38 -125 -103 -125 -196 0 -67 18 -113 60 -153 45
-44 90 -62 152 -62 143 0 245 132 209 270 -34 128 -177 196 -296 141z"/>
</g>
</svg>
